<svg id="visual" viewBox="0 0 960 540" width="960" height="540" xmlns="http://www.w3.org/2000/svg" xmlns:xlink="http://www.w3.org/1999/xlink" version="1.1"><path d="M0 25L11.5 22.8C23 20.7 46 16.3 68.8 16.5C91.7 16.7 114.3 21.3 137.2 25.2C160 29 183 32 205.8 32C228.7 32 251.3 29 274.2 29.5C297 30 320 34 342.8 32.8C365.7 31.7 388.3 25.3 411.2 20.5C434 15.7 457 12.3 480 16C503 19.7 526 30.3 548.8 33.7C571.7 37 594.3 33 617.2 28.2C640 23.3 663 17.7 685.8 16C708.7 14.3 731.3 16.7 754.2 20.7C777 24.7 800 30.3 822.8 31.5C845.7 32.7 868.3 29.3 891.2 27.2C914 25 937 24 948.5 23.5L960 23" fill="none" stroke-linecap="round" stroke-linejoin="miter" stroke="#715DF2" stroke-width="5"></path></svg>