<svg id="visual" viewBox="0 0 960 540" width="960" height="540" xmlns="http://www.w3.org/2000/svg" xmlns:xlink="http://www.w3.org/1999/xlink" version="1.1"><rect x="0" y="0" width="960" height="540" fill="#ffffff"></rect><path d="M0 51L12.3 51.5C24.7 52 49.3 53 74 55.7C98.7 58.3 123.3 62.7 148 63.5C172.7 64.3 197.3 61.7 221.8 58.3C246.3 55 270.7 51 295.2 48.7C319.7 46.3 344.3 45.7 369 46.8C393.7 48 418.3 51 443 55C467.7 59 492.3 64 517 65C541.7 66 566.3 63 591 62.2C615.7 61.3 640.3 62.7 664.8 61.7C689.3 60.7 713.7 57.3 738.2 53.2C762.7 49 787.3 44 812 45.5C836.7 47 861.3 55 886 58.3C910.7 61.7 935.3 60.3 947.7 59.7L960 59" fill="none" stroke-linecap="round" stroke-linejoin="miter" stroke="#ffcc01" stroke-width="3"></path></svg>