<svg id="visual" viewBox="0 0 960 540" width="960" height="540" xmlns="http://www.w3.org/2000/svg" xmlns:xlink="http://www.w3.org/1999/xlink" version="1.1"><rect x="0" y="0" width="960" height="540" fill="#ffffff"></rect><path d="M0 44L17.8 45.5C35.7 47 71.3 50 106.8 53.3C142.3 56.7 177.7 60.3 213.2 62C248.7 63.7 284.3 63.3 320 60C355.7 56.7 391.3 50.3 426.8 49.7C462.3 49 497.7 54 533.2 54C568.7 54 604.3 49 640 49.3C675.7 49.7 711.3 55.3 746.8 56.8C782.3 58.3 817.7 55.7 853.2 54.8C888.7 54 924.3 55 942.2 55.5L960 56L960 0L942.2 0C924.3 0 888.7 0 853.2 0C817.7 0 782.3 0 746.8 0C711.3 0 675.7 0 640 0C604.3 0 568.7 0 533.2 0C497.7 0 462.3 0 426.8 0C391.3 0 355.7 0 320 0C284.3 0 248.7 0 213.2 0C177.7 0 142.3 0 106.8 0C71.3 0 35.7 0 17.8 0L0 0Z" fill="#ffcc01" stroke-linecap="round" stroke-linejoin="miter"></path></svg>