<svg id="visual" viewBox="0 0 540 960" width="540" height="960" xmlns="http://www.w3.org/2000/svg" xmlns:xlink="http://www.w3.org/1999/xlink" version="1.1"><rect x="0" y="0" width="540" height="960" fill="#ffffff"></rect><path d="M0 36L11.3 36.2C22.7 36.3 45.3 36.7 67.8 42.3C90.3 48 112.7 59 135.2 58.2C157.7 57.3 180.3 44.7 202.8 41.8C225.3 39 247.7 46 270.2 43.5C292.7 41 315.3 29 337.8 28.7C360.3 28.3 382.7 39.7 405.2 41.3C427.7 43 450.3 35 472.8 29.8C495.3 24.7 517.7 22.3 528.8 21.2L540 20" fill="none" stroke-linecap="round" stroke-linejoin="miter" stroke="#ffcc01" stroke-width="5"></path></svg>